<svg width="143" height="91" viewBox="0 0 143 91" fill="none" xmlns="http://www.w3.org/2000/svg">
<path d="M91.9639 19.1638V22.7022" stroke="#B49B72" stroke-linecap="square" stroke-linejoin="bevel"/>
<path d="M93.7705 20.9331H90.1562" stroke="#B49B72" stroke-linecap="square" stroke-linejoin="bevel"/>
<path d="M99.9016 46.2832V49.828" stroke="#B49B72" stroke-linecap="square" stroke-linejoin="bevel"/>
<path d="M101.716 48.0588H98.095" stroke="#B49B72" stroke-linecap="square" stroke-linejoin="bevel"/>
<path d="M55.1768 37.7883C55.1768 37.7883 57.8254 37.948 57.8254 41.4034H57.9168C57.9168 37.948 60.5655 37.7883 60.5655 37.7883V37.6989C60.5655 37.6989 57.9168 37.5392 57.9168 34.0839H57.8254C57.8254 37.5392 55.1768 37.6989 55.1768 37.6989V37.7883Z" fill="#F8F8F8" stroke="#B49B72" stroke-linecap="square" stroke-linejoin="bevel"/>
<path d="M93.1441 61.2287C93.1441 61.548 92.8766 61.8099 92.5505 61.8099C92.2243 61.8099 91.9568 61.548 91.9568 61.2287C91.9568 60.9093 92.2243 60.6475 92.5505 60.6475C92.8766 60.6475 93.1441 60.9093 93.1441 61.2287Z" fill="#B49B72"/>
<path d="M77.765 58.3035C77.765 58.3035 77.3997 68.1522 76.3494 70.9753L76.5581 76.7683L77.5041 77.8477L77.6541 80.6835L81.2945 80.6707L79.2916 76.9791L78.9263 70.9306C78.9263 70.9306 81.7577 61.8546 82.5405 60.7241L82.9841 54.7395L77.7781 58.3099L77.765 58.3035Z" fill="#B49B72"/>
<path d="M72.6634 25.0144C72.6634 25.0144 75.2338 24.4907 79.4548 24.7142C83.6757 24.9378 84.9805 25.915 84.9805 25.915C85.261 28.6486 85.0262 31.4078 84.2955 34.0584L84.1389 34.6332C84.1389 35.9106 85.5807 39.2063 85.5807 39.2063C86.5593 42.1635 86.5397 45.3506 85.522 48.295L84.2172 52.0697C83.5453 54.0178 82.4558 55.7997 81.0205 57.2943C79.7679 58.6036 78.3522 60.1238 77.9412 60.7114C77.1584 61.8419 74.327 70.9178 74.327 70.9178L74.6924 76.9663L76.6952 80.658L73.0549 80.6707L72.9048 77.8349L71.9589 76.7555L71.7501 70.9625C72.8004 68.1395 73.1658 60.8583 73.1658 60.8583C66.7202 64.4478 57.926 64.3456 57.926 64.3456C57.926 64.3456 49.2297 74.3476 48.8122 75.5228C48.3946 76.7044 47.1355 82.9573 47.1355 82.9573L48.3425 85.9336H46.2483L43.9976 83.5768C46.8811 77.9882 46.0395 72.0355 46.0395 72.0355C48.6099 70.4452 49.3928 65.987 49.3928 65.987C47.5596 64.9204 46.8159 62.1037 46.5092 59.9896C46.2483 58.1693 46.7572 56.3043 47.9902 54.9183C48.0685 54.8289 48.1467 54.7459 48.2315 54.6629C50.404 52.5168 53.1049 50.9456 56.0406 49.994L64.8087 47.1518C66.9681 46.4492 68.9383 45.2676 70.5497 43.7028C72.7939 41.5248 74.2683 38.6954 74.7446 35.636L73.5181 34.3266L73.5572 35.4891C73.5572 35.4891 72.0632 34.4735 71.848 32.9726L71.2151 33.6113L70.7911 31.4717L72.1741 27.7544" fill="#F8F8F8"/>
<path d="M72.6634 25.0144C72.6634 25.0144 75.2338 24.4907 79.4548 24.7142C83.6757 24.9378 84.9805 25.915 84.9805 25.915C85.261 28.6486 85.0262 31.4078 84.2955 34.0584L84.1389 34.6332C84.1389 35.9106 85.5807 39.2063 85.5807 39.2063C86.5593 42.1635 86.5397 45.3506 85.522 48.295L84.2172 52.0697C83.5453 54.0178 82.4558 55.7997 81.0205 57.2943C79.7679 58.6036 78.3522 60.1238 77.9412 60.7114C77.1584 61.8419 74.327 70.9178 74.327 70.9178L74.6924 76.9663L76.6952 80.658L73.0549 80.6707L72.9048 77.8349L71.9589 76.7555L71.7501 70.9625C72.8004 68.1395 73.1658 60.8583 73.1658 60.8583C66.7202 64.4478 57.926 64.3456 57.926 64.3456C57.926 64.3456 49.2297 74.3476 48.8122 75.5228C48.3946 76.7044 47.1355 82.9573 47.1355 82.9573L48.3425 85.9336H46.2483L43.9976 83.5768C46.8811 77.9882 46.0395 72.0355 46.0395 72.0355C48.6099 70.4452 49.3928 65.987 49.3928 65.987C47.5596 64.9204 46.8159 62.1037 46.5092 59.9896C46.2483 58.1693 46.7572 56.3043 47.9902 54.9183C48.0685 54.8289 48.1467 54.7459 48.2315 54.6629C50.404 52.5168 53.1049 50.9456 56.0406 49.994L64.8087 47.1518C66.9681 46.4492 68.9383 45.2676 70.5497 43.7028C72.7939 41.5248 74.2683 38.6954 74.7446 35.636L73.5181 34.3266L73.5572 35.4891C73.5572 35.4891 72.0632 34.4735 71.848 32.9726L71.2151 33.6113L70.7911 31.4717L72.1741 27.7544" stroke="#B49B72" stroke-linecap="square" stroke-linejoin="bevel"/>
<path d="M58.9058 57.4731C59.2972 61.9377 57.9207 64.3583 57.9207 64.3583C57.9207 64.3583 58.4621 64.3583 59.3755 64.32C59.8648 60.9924 58.9058 57.4795 58.9058 57.4795V57.4731Z" fill="#B49B72" stroke="#B49B72" stroke-linecap="square" stroke-linejoin="bevel"/>
<path d="M73.1598 57.7542C73.1598 57.7542 72.8727 59.7597 72.4878 61.2223C72.7161 61.1073 72.9379 60.9924 73.1598 60.8646C73.1598 60.8646 73.2707 59.1337 73.1598 57.7542Z" fill="#B49B72" stroke="#B49B72" stroke-linecap="square" stroke-linejoin="bevel"/>
<path d="M57.919 64.3584C57.919 64.3584 55.9554 66.6194 53.8482 69.1167C53.3262 70.2408 52.5695 71.3905 51.5061 72.0484C51.5061 72.0484 52.3411 77.9947 49.4641 83.5897L51.7148 85.9465H53.809L52.6021 82.9701C52.6021 82.9701 53.8612 76.7109 54.2787 75.5357C54.6963 74.3541 63.3926 64.3584 63.3926 64.3584C63.3926 64.3584 68.0115 64.4095 73.0088 63.0746C73.1131 61.7781 73.1588 60.8711 73.1588 60.8711C66.7132 64.4606 57.919 64.3584 57.919 64.3584Z" fill="#B49B72"/>
<path d="M81.8633 26.8474L82.1634 22.7598L78.4839 22.7981L77.5771 23.0152L77.29 24.6567" fill="#F8F8F8"/>
<path d="M81.8633 26.8474L82.1634 22.7598L78.4839 22.7981L77.5771 23.0152L77.29 24.6567" stroke="#B49B72" stroke-linecap="square" stroke-linejoin="bevel"/>
<path d="M79.4053 13.6327C77.533 13.9713 76.1434 15.849 76.2217 17.2031C76.2999 18.5571 73.6513 24.612 74.7277 23.705L78.4854 22.8045L82.1649 22.7662L85.3551 25.9597H85.8183L84.7027 19.7962L81.6299 19.1575L80.7492 17.6949L84.6635 19.0873L84.5461 15.4786L83.5088 15.7404C83.5088 15.7404 83.1631 12.9621 79.4053 13.6391V13.6327Z" fill="#F8F8F8" stroke="#B49B72" stroke-linecap="square" stroke-linejoin="bevel"/>
<path d="M72.4217 11.0077C67.9072 13.8946 73.459 19.809 66.896 24.2032C66.896 24.2032 69.5447 24.4843 70.9277 22.1913L69.5447 24.4843C69.5447 24.4843 73.9222 24.1074 73.9222 17.152C73.9222 11.8955 77.8952 14.2778 77.8952 14.2778L80.146 13.5178C80.146 13.5178 77.0145 8.06967 72.4282 11.0013L72.4217 11.0077Z" fill="#B49B72"/>
<path d="M42.1522 56.2724C41.9957 48.0012 49.883 53.3599 49.883 53.3599L50.9986 52.4146C50.9986 52.4146 46.7255 45.7338 40.9258 48.9082C31.6684 53.9731 41.8848 60.8646 31.6619 70.7645C31.6619 70.7645 39.4122 72.2399 41.813 66.3511C43.8289 61.4075 42.2044 58.8464 42.1522 56.2724Z" fill="#B49B72"/>
<path d="M64.3391 85.7803C64.1695 85.6717 60.5161 83.8258 60.5161 83.8258L63.0213 82.2099L74.4055 80.6834L78.0458 80.6707L79.0113 80.6834L82.6516 80.6707C82.6516 80.6707 84.1586 82.542 83.989 82.4079C83.8194 82.2674 80.1138 83.9983 80.1138 83.9983L85.4699 83.8322C85.4699 83.8322 87.5771 87.1215 87.6359 87.2876C87.6946 87.4537 87.6359 88.1243 87.6359 88.1243H43.2605L44.8588 85.9527H49.693L64.3391 85.7867V85.7803Z" fill="#B49B72"/>
<path d="M72.1608 25.1421C72.1608 25.1421 68.938 26.3684 67.17 27.4542C65.402 28.5464 64.4822 29.3703 64.4822 29.3703L64.8671 30.5327C64.8671 30.5327 66.0153 31.2481 67.0917 31.395C68.1682 31.5419 75.227 31.6185 75.227 31.6185C75.227 31.6185 76.5709 32.1806 76.8775 32.1039C77.1842 32.0273 77.9018 31.5802 77.9018 31.5802L78.6064 30.1176L79.8328 29.7024C79.8328 29.7024 79.8002 29.0254 79.0891 28.9104C78.378 28.7955 77.3407 28.1312 76.6492 28.5591C75.9577 28.9871 74.6137 29.2873 73.8831 29.2873C73.1524 29.2873 71.2735 27.8566 69.0097 28.2717" fill="#F8F8F8"/>
<path d="M72.1608 25.1421C72.1608 25.1421 68.938 26.3684 67.17 27.4542C65.402 28.5464 64.4822 29.3703 64.4822 29.3703L64.8671 30.5327C64.8671 30.5327 66.0153 31.2481 67.0917 31.395C68.1682 31.5419 75.227 31.6185 75.227 31.6185C75.227 31.6185 76.5709 32.1806 76.8775 32.1039C77.1842 32.0273 77.9018 31.5802 77.9018 31.5802L78.6064 30.1176L79.8328 29.7024C79.8328 29.7024 79.8002 29.0254 79.0891 28.9104C78.378 28.7955 77.3407 28.1312 76.6492 28.5591C75.9577 28.9871 74.6137 29.2873 73.8831 29.2873C73.1524 29.2873 71.2735 27.8566 69.0097 28.2717" stroke="#B49B72" stroke-linecap="square" stroke-linejoin="bevel"/>
<path d="M102.558 28.8657C102.558 28.8657 101.56 28.5144 100.985 28.3611C100.411 28.2078 99.3349 28.8465 99.3349 28.8465C99.3349 28.8465 98.4934 28.9998 96.3405 28.3228C94.1941 27.6458 92.1587 27.799 90.8539 27.4989C89.5491 27.1987 84.9824 25.9213 84.9824 25.9213C85.1194 27.2817 85.1325 28.6549 85.0216 30.0153L88.2444 30.3538C88.2444 30.3538 90.469 30.2006 92.9676 30.654C95.4598 31.1075 97.4561 30.5007 98.9174 31.0309C100.379 31.5546 101.912 31.446 101.912 31.446C102.832 30.3219 102.564 28.8657 102.564 28.8657H102.558Z" fill="#B49B72"/>
<path d="M79.0908 28.9231H108.005" stroke="#B49B72" stroke-linecap="square" stroke-linejoin="bevel"/>
<path d="M110.634 28.9232L106.204 27.5627L106.896 28.9232L106.204 30.2836L110.634 28.9232Z" fill="#B49B72"/>
<path d="M89.5325 6.00024C89.5325 10.6244 91.3852 12.796 95.0386 16.3983C99.7488 21.0416 105.085 25.4231 101.041 28.9232" stroke="#B49B72" stroke-linecap="square" stroke-linejoin="bevel"/>
<path d="M89.5322 51.846C89.5322 47.2219 91.385 45.0503 95.0384 41.448C99.7486 36.8047 105.085 32.4232 101.04 28.9231" stroke="#B49B72" stroke-linecap="square" stroke-linejoin="bevel"/>
<path d="M89.6269 8.51672L79.0908 28.9232L89.5812 49.2403" stroke="#B49B72" stroke-linecap="square" stroke-linejoin="bevel"/>
<path d="M81.0093 57.2943C82.2945 53.4174 80.5657 47.4455 77.2842 44.3989" stroke="#B49B72" stroke-linecap="square" stroke-linejoin="bevel"/>
<path d="M82.1641 33.1322C82.1641 35.968 83.7559 38.3951 83.9842 41.9207C84.2126 45.4527 83.521 47.1197 83.521 47.1197" stroke="#B49B72" stroke-linecap="square" stroke-linejoin="bevel"/>
<path d="M78.4819 22.7981C78.5994 22.7981 81.9787 25.289 81.9787 25.289L82.1614 22.7661L78.4819 22.8044V22.7981Z" fill="#B49B72"/>
<path d="M91.9639 19.1638V22.7022" stroke="#B49B72" stroke-linecap="square" stroke-linejoin="bevel"/>
<path d="M93.7705 20.9331H90.1562" stroke="#B49B72" stroke-linecap="square" stroke-linejoin="bevel"/>
<path d="M99.9016 46.2832V49.828" stroke="#B49B72" stroke-linecap="square" stroke-linejoin="bevel"/>
<path d="M101.716 48.0588H98.095" stroke="#B49B72" stroke-linecap="square" stroke-linejoin="bevel"/>
<path d="M55.1768 37.7883C55.1768 37.7883 57.8254 37.948 57.8254 41.4034H57.9168C57.9168 37.948 60.5655 37.7883 60.5655 37.7883V37.6989C60.5655 37.6989 57.9168 37.5392 57.9168 34.0839H57.8254C57.8254 37.5392 55.1768 37.6989 55.1768 37.6989V37.7883Z" fill="#F8F8F8" stroke="#B49B72" stroke-linecap="square" stroke-linejoin="bevel"/>
<path d="M93.1441 61.2287C93.1441 61.548 92.8766 61.8099 92.5505 61.8099C92.2243 61.8099 91.9568 61.548 91.9568 61.2287C91.9568 60.9093 92.2243 60.6475 92.5505 60.6475C92.8766 60.6475 93.1441 60.9093 93.1441 61.2287Z" fill="#B49B72"/>
</svg>
